<svg xmlns="http://www.w3.org/2000/svg" width="731.78" height="304.585" viewBox="0 0 731.78 304.585">
  <g id="drone-white" transform="translate(-436.181 -195.706)">
    <path id="Path_1" data-name="Path 1" d="M479.9,562.186a3.868,3.868,0,0,0-3.863,3.863V720.363a3.868,3.868,0,0,0,3.863,3.863h26.2a3.868,3.868,0,0,0,3.863-3.863V566.049a3.868,3.868,0,0,0-3.863-3.863Z" transform="translate(200 -223.935)" fill="#fff"/>
    <path id="Path_2" data-name="Path 2" d="M697.741,562.186a3.868,3.868,0,0,0-3.863,3.863V720.363a3.868,3.868,0,0,0,3.863,3.863h26.2a3.868,3.868,0,0,0,3.863-3.863V566.049a3.868,3.868,0,0,0-3.863-3.863Z" transform="translate(200 -223.935)" fill="#fff"/>
    <path id="Path_5" data-name="Path 5" d="M137.479,265.647,8.4,250.14l102.982,27.322,24.678-6.646Z" transform="translate(430 -50)" fill="#fff"/>
    <path id="Path_18" data-name="Path 18" d="M137.479,265.647,8.4,250.14l102.982,27.322,24.678-6.646Z" transform="translate(882 -50)" fill="#fff"/>
    <path id="Path_6" data-name="Path 6" d="M109.163,275.031l24.677-6.646.243-.88,1.181.142-1.424,5.169-24.677,6.646L6.181,250.14,36.7,255.806Z" transform="translate(430 -50)" fill="#fff"/>
    <path id="Path_19" data-name="Path 19" d="M109.163,275.031l24.677-6.646.243-.88,1.181.142-1.424,5.169-24.677,6.646L6.181,250.14,36.7,255.806Z" transform="translate(882 -50)" fill="#fff"/>
    <path id="Path_7" data-name="Path 7" d="M854.095,520.072l-16.984.738-155.6,65.647-8.9,7.458-28.23,23.63H555.767l-26.687-23.63-10.146-8.987-149.253-63.38-13.292-1.477L400.7,498.657h.236c10.043-9.533,97.016-16.984,202.833-16.984s192.791,7.451,202.833,16.984h.975Z" transform="translate(200 -223.935)" fill="#fff"/>
    <path id="Path_8" data-name="Path 8" d="M399.479,499.752a8.277,8.277,0,0,0,.479-2.758V461.921a8.309,8.309,0,0,0-8.309-8.309h-3.374a19.938,19.938,0,1,0-28.326,0h-3.374a8.309,8.309,0,0,0-8.309,8.309v35.073a8.262,8.262,0,0,0,1.085,4.1c-2.508.44-5.016.917-7.523,1.469a6.877,6.877,0,0,0-5.376,6.724v8.333a6.887,6.887,0,0,0,6.887,6.887h78.033V503.826a177.614,177.614,0,0,0-21.893-4.074Z" transform="translate(200 -223.935)" fill="#fff"/>
    <path id="Path_9" data-name="Path 9" d="M861.272,502.558c-2.508-.552-5.016-1.029-7.523-1.469a8.262,8.262,0,0,0,1.085-4.1V461.921a8.309,8.309,0,0,0-8.309-8.309h-3.374a19.938,19.938,0,1,0-28.326,0h-3.373a8.309,8.309,0,0,0-8.309,8.309v35.073a8.275,8.275,0,0,0,.478,2.758,177.624,177.624,0,0,0-21.893,4.074V524.5h78.033a6.887,6.887,0,0,0,6.887-6.887v-8.333A6.877,6.877,0,0,0,861.272,502.558Z" transform="translate(200 -223.935)" fill="#fff"/>
    <path id="Path_11" data-name="Path 11" d="M615.653,610.9H584.494a8.789,8.789,0,0,0-8.789,8.789v6.791a8.783,8.783,0,0,0,5.682,8.213,8.589,8.589,0,0,0-1.99,5.509v1.948a8.612,8.612,0,0,0,3.694,7.071l0,25.923h33.968V649.219a8.611,8.611,0,0,0,3.692-7.07V640.2a8.589,8.589,0,0,0-1.99-5.509,8.784,8.784,0,0,0,5.682-8.213v-6.791a8.789,8.789,0,0,0-8.79-8.789Z" transform="translate(200 -223.935)" fill="#fff"/>
    <path id="Path_12" data-name="Path 12" d="M568.408,671.475a5.239,5.239,0,0,0-5.233,5.232v41.917a5.239,5.239,0,0,0,5.233,5.233H631.74a5.239,5.239,0,0,0,5.232-5.233V676.707a5.239,5.239,0,0,0-5.232-5.232Z" transform="translate(200 -223.935)" fill="#fff"/>
    <path id="Path_13" data-name="Path 13" d="M672.61,593.915l-28.23,23.63H555.767l-26.687-23.63h26.539l1.159-5.782a7.5,7.5,0,0,1,7.355-6.033h74.095a7.5,7.5,0,0,1,7.355,6.033l1.159,5.782Z" transform="translate(200 -223.935)" fill="#fff"/>
    <circle id="Ellipse_1" data-name="Ellipse 1" cx="20.676" cy="20.676" r="20.676" transform="translate(779.397 453.054)" fill="#fff"/>
    <circle id="Ellipse_2" data-name="Ellipse 2" cx="11.815" cy="11.815" r="11.815" transform="translate(788.258 461.915)" fill="#fff"/>
    <path id="Path_14" data-name="Path 14" d="M607.215,688.269a11.8,11.8,0,0,1-16.538,16.538,11.8,11.8,0,1,0,16.538-16.538Z" transform="translate(200 -223.935)" fill="#fff"/>
    <rect id="Rectangle_1" data-name="Rectangle 1" width="530.196" height="3.382" transform="translate(536.821 287.43)" fill="#fff"/>
    <path id="Path_16" data-name="Path 16" d="M226.973,265.647,351.746,250.14,252.2,277.462l-23.853-6.646Z" transform="translate(356 -50)" fill="#fff"/>
    <path id="Path_21" data-name="Path 21" d="M226.973,265.647,351.746,250.14,252.2,277.462l-23.853-6.646Z" transform="translate(814 -50)" fill="#fff"/>
    <path id="Path_17" data-name="Path 17" d="M254.419,275.031l-23.854-6.646-.234-.88-1.142.142,1.376,5.169,23.854,6.646,99.542-29.322-29.5,5.666Z" transform="translate(356 -50)" fill="#fff"/>
    <path id="Path_20" data-name="Path 20" d="M254.419,275.031l-23.854-6.646-.234-.88-1.142.142,1.376,5.169,23.854,6.646,99.542-29.322-29.5,5.666Z" transform="translate(814 -50)" fill="#fff"/>
    <rect id="Rectangle_2" data-name="Rectangle 2" width="59.075" height="11.815" transform="translate(771.644 364.442)" fill="#fff"/>
  </g>
</svg>
