<?xml version="1.0" encoding="UTF-8" standalone="no"?>
<!DOCTYPE svg PUBLIC "-//W3C//DTD SVG 1.1//EN" "http://www.w3.org/Graphics/SVG/1.1/DTD/svg11.dtd">
<svg width="100%" height="100%" viewBox="0 0 1600 800" version="1.1" xmlns="http://www.w3.org/2000/svg" xmlns:xlink="http://www.w3.org/1999/xlink" xml:space="preserve" xmlns:serif="http://www.serif.com/" style="fill-rule:evenodd;clip-rule:evenodd;stroke-linejoin:round;stroke-miterlimit:2;">
    <g id="recon" transform="matrix(1,0,0,1,22.3069,3.4945)">
        <g id="heartbeat" transform="matrix(1,0,0,1,352.859,-78.935)">
            <path d="M548.071,747.424C547.675,747.424 547.277,747.413 546.878,747.391C537.146,746.84 529.027,739.558 527.424,729.943L460.275,327.043L400.985,564.2C398.664,573.484 390.255,580.049 380.685,580.048L297,580.048C285.523,580.048 276.078,570.603 276.078,559.126C276.078,547.649 285.523,538.204 297,538.204L364.352,538.204L444.076,219.304C446.397,210.022 454.805,203.458 464.373,203.458C474.557,203.458 483.335,210.894 485.01,220.939L553.44,631.517L611.63,427.849C614.188,418.894 622.433,412.675 631.746,412.675C640.729,412.675 648.754,418.459 651.594,426.981L688.67,538.206L884.277,538.206C895.754,538.206 905.199,547.651 905.199,559.128C905.199,570.605 895.754,580.05 884.277,580.05L673.592,580.05C664.61,580.05 656.584,574.265 653.744,565.744L633.286,504.371L568.176,732.25C565.618,741.201 557.38,747.418 548.071,747.424Z" style="fill:rgb(108,99,255);fill-rule:nonzero;"/>
        </g>
        <g id="drone" transform="matrix(1,0,0,1,-113.141,0)">
            <g id="Path_1" transform="matrix(1,0,0,1,200,-223.935)">
                <path d="M479.9,562.186C477.782,562.189 476.04,563.931 476.037,566.049L476.037,720.363C476.04,722.481 477.782,724.223 479.9,724.226L506.1,724.226C508.218,724.223 509.96,722.481 509.963,720.363L509.963,566.049C509.96,563.931 508.218,562.189 506.1,562.186L479.9,562.186Z" style="fill:rgb(63,61,86);fill-rule:nonzero;"/>
            </g>
            <g id="Path_2" transform="matrix(1,0,0,1,200,-223.935)">
                <path d="M697.741,562.186C695.623,562.189 693.881,563.931 693.878,566.049L693.878,720.363C693.881,722.481 695.623,724.223 697.741,724.226L723.941,724.226C726.059,724.223 727.801,722.481 727.804,720.363L727.804,566.049C727.801,563.931 726.059,562.189 723.941,562.186L697.741,562.186Z" style="fill:rgb(63,61,86);fill-rule:nonzero;"/>
            </g>
            <g id="Path_3" transform="matrix(1,0,0,1,356,-50)">
                <path d="M664.127,265.647L463.273,250.14L623.513,277.462L661.913,270.816L664.127,265.647Z" style="fill:rgb(63,61,86);fill-rule:nonzero;"/>
            </g>
            <g id="Path_4" transform="matrix(1,0,0,1,356,-50)">
                <path d="M624.99,275.031L663.39,268.385L663.767,267.505L665.605,267.647L663.39,272.816L624.99,279.462L464.75,250.14L512.237,255.806L624.99,275.031Z" style="fill:rgb(108,99,255);fill-rule:nonzero;"/>
            </g>
            <g id="Path_5" transform="matrix(1,0,0,1,356,-50)">
                <path d="M209.251,265.647L8.4,250.14L168.641,277.462L207.041,270.816L209.251,265.647Z" style="fill:rgb(63,61,86);fill-rule:nonzero;"/>
            </g>
            <g id="Path_6" transform="matrix(1,0,0,1,356,-50)">
                <path d="M166.422,275.031L204.822,268.385L205.2,267.505L207.038,267.647L204.822,272.816L166.422,279.462L6.181,250.14L53.668,255.806L166.422,275.031Z" style="fill:rgb(108,99,255);fill-rule:nonzero;"/>
            </g>
            <g id="Path_7" transform="matrix(1,0,0,1,200,-223.935)">
                <path d="M854.095,520.072L837.111,520.81L681.511,586.457L672.611,593.915L644.381,617.545L555.767,617.545L529.08,593.915L518.934,584.928L369.681,521.548L356.389,520.071L400.7,498.657L400.936,498.657C410.979,489.124 497.952,481.673 603.769,481.673C709.586,481.673 796.56,489.124 806.602,498.657L807.577,498.657L854.095,520.072Z" style="fill:rgb(63,61,86);fill-rule:nonzero;"/>
            </g>
            <g id="Path_8" transform="matrix(1,0,0,1,200,-223.935)">
                <path d="M399.479,499.752C399.794,498.867 399.956,497.934 399.958,496.994L399.958,461.921C399.958,457.363 396.207,453.612 391.649,453.612L388.275,453.612C391.973,449.88 394.05,444.833 394.05,439.579C394.05,428.641 385.05,419.641 374.112,419.641C363.174,419.641 354.174,428.641 354.174,439.579C354.174,444.833 356.251,449.88 359.949,453.612L356.575,453.612C352.017,453.612 348.266,457.363 348.266,461.921L348.266,496.994C348.265,498.432 348.639,499.845 349.351,501.094C346.843,501.534 344.335,502.011 341.828,502.563C338.692,503.264 336.446,506.074 336.452,509.287L336.452,517.62C336.452,521.398 339.561,524.507 343.339,524.507L421.372,524.507L421.372,503.826C414.167,502.011 406.855,500.651 399.479,499.752Z" style="fill:rgb(63,61,86);fill-rule:nonzero;"/>
            </g>
            <g id="Path_9" transform="matrix(1,0,0,1,200,-223.935)">
                <path d="M861.272,502.558C858.764,502.006 856.256,501.529 853.749,501.089C854.461,499.84 854.835,498.427 854.834,496.989L854.834,461.921C854.834,457.363 851.083,453.612 846.525,453.612L843.151,453.612C846.849,449.88 848.926,444.833 848.926,439.579C848.926,428.641 839.926,419.641 828.988,419.641C818.05,419.641 809.05,428.641 809.05,439.579C809.05,444.833 811.127,449.88 814.825,453.612L811.452,453.612C806.894,453.612 803.143,457.363 803.143,461.921L803.143,496.994C803.145,497.934 803.306,498.866 803.621,499.752C796.245,500.651 788.933,502.011 781.728,503.826L781.728,524.5L859.761,524.5C863.539,524.5 866.648,521.391 866.648,517.613L866.648,509.28C866.653,506.068 864.407,503.259 861.272,502.558Z" style="fill:rgb(63,61,86);fill-rule:nonzero;"/>
            </g>
            <g id="Path_10" transform="matrix(1,0,0,1,356,-50)">
                <path d="M681.85,265.647L882.7,250.14L722.46,277.462L684.06,270.816L681.85,265.647Z" style="fill:rgb(63,61,86);fill-rule:nonzero;"/>
            </g>
            <g id="Path_11" transform="matrix(1,0,0,1,200,-223.935)">
                <path d="M615.653,610.9L584.494,610.9C579.672,610.9 575.705,614.867 575.705,619.689L575.705,626.48C575.707,630.125 577.977,633.406 581.387,634.693C580.099,636.239 579.394,638.19 579.397,640.202L579.397,642.15C579.397,644.967 580.778,647.612 583.091,649.221L583.091,675.144L617.059,675.144L617.059,649.219C619.371,647.61 620.752,644.965 620.751,642.149L620.751,640.2C620.754,638.188 620.049,636.237 618.761,634.691C622.171,633.404 624.441,630.123 624.443,626.478L624.443,619.687C624.443,614.865 620.476,610.898 615.654,610.898C615.654,610.898 615.653,610.898 615.653,610.898L615.653,610.9Z" style="fill:rgb(63,61,86);fill-rule:nonzero;"/>
            </g>
            <g id="Path_12" transform="matrix(1,0,0,1,200,-223.935)">
                <path d="M568.408,671.475C565.539,671.478 563.179,673.838 563.175,676.707L563.175,718.624C563.178,721.493 565.539,723.854 568.408,723.857L631.74,723.857C634.609,723.853 636.969,721.493 636.972,718.624L636.972,676.707C636.968,673.838 634.609,671.479 631.74,671.475L568.408,671.475Z" style="fill:rgb(108,99,255);fill-rule:nonzero;"/>
            </g>
            <g id="Path_13" transform="matrix(1,0,0,1,200,-223.935)">
                <path d="M672.61,593.915L644.38,617.545L555.767,617.545L529.08,593.915L555.619,593.915L556.778,588.133C557.475,584.639 560.57,582.1 564.133,582.1L638.228,582.1C641.791,582.1 644.886,584.639 645.583,588.133L646.742,593.915L672.61,593.915Z" style="fill:rgb(108,99,255);fill-rule:nonzero;"/>
            </g>
            <g id="Ellipse_1" transform="matrix(1,0,0,1,779.397,453.054)">
                <circle cx="20.676" cy="20.676" r="20.676" style="fill:rgb(63,61,86);"/>
            </g>
            <g id="Ellipse_2" transform="matrix(1,0,0,1,788.258,461.915)">
                <circle cx="11.815" cy="11.815" r="11.815" style="fill:rgb(230,230,230);"/>
            </g>
            <g id="Path_14" transform="matrix(1,0,0,1,200,-223.935)">
                <path d="M607.215,688.269C608.782,690.324 609.631,692.838 609.631,695.423C609.631,701.896 604.304,707.223 597.831,707.223C595.246,707.223 592.732,706.374 590.677,704.807C592.907,707.733 596.382,709.453 600.061,709.453C606.534,709.453 611.861,704.126 611.861,697.653C611.861,693.974 610.141,690.499 607.215,688.269Z" style="fill:white;fill-rule:nonzero;"/>
            </g>
            <g id="Rectangle_1" transform="matrix(1,0,0,1,536.821,287.43)">
                <rect x="0" y="0" width="530.196" height="3.382" style="fill:rgb(230,230,230);"/>
            </g>
            <g id="Path_15" transform="matrix(1,0,0,1,356,-50)">
                <path d="M723.941,275.031L685.541,268.385L685.164,267.505L683.326,267.647L685.541,272.816L723.941,279.462L884.181,250.14L836.694,255.806L723.941,275.031Z" style="fill:rgb(108,99,255);fill-rule:nonzero;"/>
            </g>
            <g id="Path_16" transform="matrix(1,0,0,1,356,-50)">
                <path d="M226.973,265.647L427.828,250.14L267.587,277.462L229.187,270.816L226.973,265.647Z" style="fill:rgb(63,61,86);fill-rule:nonzero;"/>
            </g>
            <g id="Path_17" transform="matrix(1,0,0,1,356,-50)">
                <path d="M269.8,275.031L231.4,268.385L231.023,267.505L229.185,267.647L231.4,272.816L269.8,279.462L430.04,250.14L382.553,255.806L269.8,275.031Z" style="fill:rgb(108,99,255);fill-rule:nonzero;"/>
            </g>
            <g id="Rectangle_2" transform="matrix(1,0,0,1,771.644,364.442)">
                <rect x="0" y="0" width="59.075" height="11.815" style="fill:rgb(230,230,230);"/>
            </g>
        </g>
        <g transform="matrix(1,0,0,1,249.407,24.3329)">
            <path d="M162.989,572.669C166.889,572.669 170.689,572.269 174.389,571.469L188.639,595.469L193.289,595.469L178.289,570.269C183.689,568.369 187.989,565.444 191.189,561.494C194.389,557.544 195.989,552.419 195.989,546.119C195.989,541.719 195.139,537.869 193.439,534.569C191.739,531.269 189.414,528.494 186.464,526.244C183.514,523.994 180.039,522.294 176.039,521.144C172.039,519.994 167.689,519.419 162.989,519.419L146.789,519.419L146.789,595.469L150.689,595.469L150.689,572.669L162.989,572.669ZM150.689,569.069L150.689,523.019L162.989,523.019C172.089,523.019 179.214,525.019 184.364,529.019C189.514,533.019 192.089,538.719 192.089,546.119C192.089,553.519 189.514,559.194 184.364,563.144C179.214,567.094 172.089,569.069 162.989,569.069L150.689,569.069ZM131.789,507.419L166.289,507.419C172.689,507.419 178.614,508.269 184.064,509.969C189.514,511.669 194.239,514.169 198.239,517.469C202.239,520.769 205.364,524.844 207.614,529.694C209.864,534.544 210.989,540.119 210.989,546.419C210.989,551.419 210.289,555.669 208.889,559.169C207.489,562.669 205.939,565.569 204.239,567.869C202.239,570.469 199.989,572.669 197.489,574.469L216.239,607.469L178.739,607.469L163.739,582.119L163.739,607.469L131.789,607.469L131.789,507.419ZM163.739,556.619L165.389,556.619C169.189,556.619 172.414,555.769 175.064,554.069C177.714,552.369 179.039,549.519 179.039,545.519C179.039,541.519 177.714,538.669 175.064,536.969C172.414,535.269 169.189,534.419 165.389,534.419L163.739,534.419L163.739,556.619Z" style="fill:rgb(63,61,86);fill-rule:nonzero;"/>
            <path d="M219.239,507.419L278.189,507.419L278.189,533.669L251.189,533.669L251.189,544.769L277.739,544.769L277.739,569.669L251.189,569.669L251.189,581.219L279.239,581.219L279.239,607.469L219.239,607.469L219.239,507.419ZM268.139,595.469L268.139,591.869L238.139,591.869L238.139,559.019L266.639,559.019L266.639,555.419L238.139,555.419L238.139,523.019L268.139,523.019L268.139,519.419L234.239,519.419L234.239,595.469L268.139,595.469Z" style="fill:rgb(63,61,86);fill-rule:nonzero;"/>
            <path d="M302.639,557.519C302.639,552.719 303.464,548.219 305.114,544.019C306.764,539.819 309.089,536.169 312.089,533.069C315.089,529.969 318.739,527.519 323.039,525.719C327.339,523.919 332.139,523.019 337.439,523.019C340.039,523.019 342.364,523.194 344.414,523.544C346.464,523.894 348.189,524.319 349.589,524.819C351.289,525.319 352.739,525.919 353.939,526.619L356.039,523.019C354.439,522.319 352.739,521.669 350.939,521.069C349.239,520.569 347.289,520.119 345.089,519.719C342.889,519.319 340.339,519.119 337.439,519.119C332.339,519.119 327.464,520.019 322.814,521.819C318.164,523.619 314.064,526.194 310.514,529.544C306.964,532.894 304.114,536.944 301.964,541.694C299.814,546.444 298.739,551.719 298.739,557.519C298.739,563.419 299.764,568.719 301.814,573.419C303.864,578.119 306.689,582.144 310.289,585.494C313.889,588.844 318.089,591.419 322.889,593.219C327.689,595.019 332.789,595.919 338.189,595.919C341.189,595.919 343.889,595.669 346.289,595.169C348.689,594.669 350.739,594.119 352.439,593.519C354.339,592.819 356.039,592.019 357.539,591.119L355.439,587.519C354.139,588.419 352.639,589.169 350.939,589.769C349.439,590.369 347.639,590.894 345.539,591.344C343.439,591.794 340.989,592.019 338.189,592.019C332.689,592.019 327.739,591.119 323.339,589.319C318.939,587.519 315.214,585.069 312.164,581.969C309.114,578.869 306.764,575.219 305.114,571.019C303.464,566.819 302.639,562.319 302.639,557.519ZM283.739,557.519C283.739,549.519 285.139,542.294 287.939,535.844C290.739,529.394 294.539,523.869 299.339,519.269C304.139,514.669 309.739,511.144 316.139,508.694C322.539,506.244 329.339,505.019 336.539,505.019C342.239,505.019 347.314,505.569 351.764,506.669C356.214,507.769 360.039,509.019 363.239,510.419C366.939,512.019 370.139,513.769 372.839,515.669L357.089,543.419C355.489,542.219 353.739,541.069 351.839,539.969C350.139,539.169 348.114,538.394 345.764,537.644C343.414,536.894 340.739,536.519 337.739,536.519C334.639,536.519 331.789,537.069 329.189,538.169C326.589,539.269 324.314,540.769 322.364,542.669C320.414,544.569 318.889,546.794 317.789,549.344C316.689,551.894 316.139,554.619 316.139,557.519C316.139,560.419 316.714,563.144 317.864,565.694C319.014,568.244 320.589,570.469 322.589,572.369C324.589,574.269 326.939,575.769 329.639,576.869C332.339,577.969 335.289,578.519 338.489,578.519C341.689,578.519 344.539,578.119 347.039,577.319C349.539,576.519 351.639,575.619 353.339,574.619C355.339,573.519 357.089,572.219 358.589,570.719L374.339,598.469C371.639,600.669 368.439,602.619 364.739,604.319C361.539,605.719 357.689,607.019 353.189,608.219C348.689,609.419 343.539,610.019 337.739,610.019C329.939,610.019 322.739,608.744 316.139,606.194C309.539,603.644 303.839,600.069 299.039,595.469C294.239,590.869 290.489,585.344 287.789,578.894C285.089,572.444 283.739,565.319 283.739,557.519Z" style="fill:rgb(63,61,86);fill-rule:nonzero;"/>
            <path d="M366.839,557.519C366.839,550.319 368.214,543.519 370.964,537.119C373.714,530.719 377.464,525.144 382.214,520.394C386.964,515.644 392.539,511.894 398.939,509.144C405.339,506.394 412.139,505.019 419.339,505.019C426.539,505.019 433.339,506.394 439.739,509.144C446.139,511.894 451.714,515.644 456.464,520.394C461.214,525.144 464.964,530.719 467.714,537.119C470.464,543.519 471.839,550.319 471.839,557.519C471.839,564.719 470.464,571.519 467.714,577.919C464.964,584.319 461.214,589.894 456.464,594.644C451.714,599.394 446.139,603.144 439.739,605.894C433.339,608.644 426.539,610.019 419.339,610.019C412.139,610.019 405.339,608.644 398.939,605.894C392.539,603.144 386.964,599.394 382.214,594.644C377.464,589.894 373.714,584.319 370.964,577.919C368.214,571.519 366.839,564.719 366.839,557.519ZM380.939,557.519C380.939,562.819 381.939,567.794 383.939,572.444C385.939,577.094 388.689,581.169 392.189,584.669C395.689,588.169 399.764,590.919 404.414,592.919C409.064,594.919 414.039,595.919 419.339,595.919C424.639,595.919 429.614,594.919 434.264,592.919C438.914,590.919 442.989,588.169 446.489,584.669C449.989,581.169 452.739,577.094 454.739,572.444C456.739,567.794 457.739,562.819 457.739,557.519C457.739,552.219 456.739,547.244 454.739,542.594C452.739,537.944 449.989,533.869 446.489,530.369C442.989,526.869 438.914,524.119 434.264,522.119C429.614,520.119 424.639,519.119 419.339,519.119C414.039,519.119 409.064,520.119 404.414,522.119C399.764,524.119 395.689,526.869 392.189,530.369C388.689,533.869 385.939,537.944 383.939,542.594C381.939,547.244 380.939,552.219 380.939,557.519ZM398.339,557.519C398.339,560.419 398.889,563.144 399.989,565.694C401.089,568.244 402.589,570.469 404.489,572.369C406.389,574.269 408.614,575.769 411.164,576.869C413.714,577.969 416.439,578.519 419.339,578.519C422.239,578.519 424.964,577.969 427.514,576.869C430.064,575.769 432.289,574.269 434.189,572.369C436.089,570.469 437.589,568.244 438.689,565.694C439.789,563.144 440.339,560.419 440.339,557.519C440.339,554.619 439.789,551.894 438.689,549.344C437.589,546.794 436.089,544.569 434.189,542.669C432.289,540.769 430.064,539.269 427.514,538.169C424.964,537.069 422.239,536.519 419.339,536.519C416.439,536.519 413.714,537.069 411.164,538.169C408.614,539.269 406.389,540.769 404.489,542.669C402.589,544.569 401.089,546.794 399.989,549.344C398.889,551.894 398.339,554.619 398.339,557.519ZM419.339,592.019C414.539,592.019 410.064,591.119 405.914,589.319C401.764,587.519 398.114,585.044 394.964,581.894C391.814,578.744 389.339,575.094 387.539,570.944C385.739,566.794 384.839,562.319 384.839,557.519C384.839,552.719 385.739,548.244 387.539,544.094C389.339,539.944 391.814,536.294 394.964,533.144C398.114,529.994 401.764,527.519 405.914,525.719C410.064,523.919 414.539,523.019 419.339,523.019C424.139,523.019 428.614,523.919 432.764,525.719C436.914,527.519 440.564,529.994 443.714,533.144C446.864,536.294 449.339,539.944 451.139,544.094C452.939,548.244 453.839,552.719 453.839,557.519C453.839,562.319 452.939,566.794 451.139,570.944C449.339,575.094 446.864,578.744 443.714,581.894C440.564,585.044 436.914,587.519 432.764,589.319C428.614,591.119 424.139,592.019 419.339,592.019Z" style="fill:rgb(63,61,86);fill-rule:nonzero;"/>
            <path d="M480.089,507.419L506.339,507.419L533.939,545.969L533.939,507.419L565.289,507.419L565.289,607.469L538.889,607.469L511.439,569.069L511.439,607.469L480.089,607.469L480.089,507.419ZM497.939,595.469L497.939,526.169L547.439,595.469L551.339,595.469L551.339,519.419L547.439,519.419L547.439,588.719L497.939,519.419L494.039,519.419L494.039,595.469L497.939,595.469Z" style="fill:rgb(63,61,86);fill-rule:nonzero;"/>
            <path d="M761.789,507.419L788.039,507.419L815.639,545.969L815.639,507.419L846.989,507.419L846.989,607.469L820.589,607.469L793.139,569.069L793.139,607.469L761.789,607.469L761.789,507.419ZM779.639,595.469L779.639,526.169L829.139,595.469L833.039,595.469L833.039,519.419L829.139,519.419L829.139,588.719L779.639,519.419L775.739,519.419L775.739,595.469L779.639,595.469Z" style="fill:rgb(108,99,255);fill-rule:nonzero;"/>
            <path d="M857.489,507.419L916.439,507.419L916.439,533.669L889.439,533.669L889.439,544.769L915.989,544.769L915.989,569.669L889.439,569.669L889.439,581.219L917.489,581.219L917.489,607.469L857.489,607.469L857.489,507.419ZM906.389,595.469L906.389,591.869L876.389,591.869L876.389,559.019L904.889,559.019L904.889,555.419L876.389,555.419L876.389,523.019L906.389,523.019L906.389,519.419L872.489,519.419L872.489,595.469L906.389,595.469Z" style="fill:rgb(108,99,255);fill-rule:nonzero;"/>
            <path d="M957.689,572.669C961.589,572.669 965.389,572.269 969.089,571.469L983.339,595.469L987.989,595.469L972.989,570.269C978.389,568.369 982.689,565.444 985.889,561.494C989.089,557.544 990.689,552.419 990.689,546.119C990.689,541.719 989.839,537.869 988.139,534.569C986.439,531.269 984.114,528.494 981.164,526.244C978.214,523.994 974.739,522.294 970.739,521.144C966.739,519.994 962.389,519.419 957.689,519.419L941.489,519.419L941.489,595.469L945.389,595.469L945.389,572.669L957.689,572.669ZM945.389,569.069L945.389,523.019L957.689,523.019C966.789,523.019 973.914,525.019 979.064,529.019C984.214,533.019 986.789,538.719 986.789,546.119C986.789,553.519 984.214,559.194 979.064,563.144C973.914,567.094 966.789,569.069 957.689,569.069L945.389,569.069ZM926.489,507.419L960.989,507.419C967.389,507.419 973.314,508.269 978.764,509.969C984.214,511.669 988.939,514.169 992.939,517.469C996.939,520.769 1000.06,524.844 1002.31,529.694C1004.56,534.544 1005.69,540.119 1005.69,546.419C1005.69,551.419 1004.99,555.669 1003.59,559.169C1002.19,562.669 1000.64,565.569 998.939,567.869C996.939,570.469 994.689,572.669 992.189,574.469L1010.94,607.469L973.439,607.469L958.439,582.119L958.439,607.469L926.489,607.469L926.489,507.419ZM958.439,556.619L960.089,556.619C963.889,556.619 967.114,555.769 969.764,554.069C972.414,552.369 973.739,549.519 973.739,545.519C973.739,541.519 972.414,538.669 969.764,536.969C967.114,535.269 963.889,534.419 960.089,534.419L958.439,534.419L958.439,556.619Z" style="fill:rgb(108,99,255);fill-rule:nonzero;"/>
        </g>
    </g>
</svg>
