<svg xmlns="http://www.w3.org/2000/svg" width="888.199" height="543.967" viewBox="0 0 888.199 543.967">
  <g id="recon" transform="translate(-356 -124.522)">
    <path id="heartbeat" d="M548.071,747.424q-.594,0-1.193-.033a20.921,20.921,0,0,1-19.454-17.448l-67.149-402.9L400.985,564.2a20.922,20.922,0,0,1-20.3,15.848H297a20.922,20.922,0,0,1,0-41.844h67.352l79.724-318.9a20.922,20.922,0,0,1,40.934,1.635L553.44,631.517l58.19-203.668a20.921,20.921,0,0,1,39.964-.868L688.67,538.206h68.607a20.922,20.922,0,1,1,0,41.844H673.592a20.921,20.921,0,0,1-19.848-14.306l-20.458-61.373L568.176,732.25A20.923,20.923,0,0,1,548.071,747.424Z" transform="translate(466 -78.935)" fill="#6c63ff"/>
    <g id="drone">
      <path id="Path_1" data-name="Path 1" d="M479.9,562.186a3.868,3.868,0,0,0-3.863,3.863V720.363a3.868,3.868,0,0,0,3.863,3.863h26.2a3.868,3.868,0,0,0,3.863-3.863V566.049a3.868,3.868,0,0,0-3.863-3.863Z" transform="translate(200 -223.935)" fill="#3f3d56"/>
      <path id="Path_2" data-name="Path 2" d="M697.741,562.186a3.868,3.868,0,0,0-3.863,3.863V720.363a3.868,3.868,0,0,0,3.863,3.863h26.2a3.868,3.868,0,0,0,3.863-3.863V566.049a3.868,3.868,0,0,0-3.863-3.863Z" transform="translate(200 -223.935)" fill="#3f3d56"/>
      <path id="Path_3" data-name="Path 3" d="M664.127,265.647,463.273,250.14l160.24,27.322,38.4-6.646Z" transform="translate(356 -50)" fill="#3f3d56"/>
      <path id="Path_4" data-name="Path 4" d="M624.99,275.031l38.4-6.646.377-.88,1.838.142-2.215,5.169-38.4,6.646L464.75,250.14l47.487,5.666Z" transform="translate(356 -50)" fill="#6c63ff"/>
      <path id="Path_5" data-name="Path 5" d="M209.251,265.647,8.4,250.14l160.241,27.322,38.4-6.646Z" transform="translate(356 -50)" fill="#3f3d56"/>
      <path id="Path_6" data-name="Path 6" d="M166.422,275.031l38.4-6.646.378-.88,1.838.142-2.216,5.169-38.4,6.646L6.181,250.14l47.487,5.666Z" transform="translate(356 -50)" fill="#6c63ff"/>
      <path id="Path_7" data-name="Path 7" d="M854.095,520.072l-16.984.738-155.6,65.647-8.9,7.458-28.23,23.63H555.767l-26.687-23.63-10.146-8.987-149.253-63.38-13.292-1.477L400.7,498.657h.236c10.043-9.533,97.016-16.984,202.833-16.984s192.791,7.451,202.833,16.984h.975Z" transform="translate(200 -223.935)" fill="#3f3d56"/>
      <path id="Path_8" data-name="Path 8" d="M399.479,499.752a8.277,8.277,0,0,0,.479-2.758V461.921a8.309,8.309,0,0,0-8.309-8.309h-3.374a19.938,19.938,0,1,0-28.326,0h-3.374a8.309,8.309,0,0,0-8.309,8.309v35.073a8.262,8.262,0,0,0,1.085,4.1c-2.508.44-5.016.917-7.523,1.469a6.877,6.877,0,0,0-5.376,6.724v8.333a6.887,6.887,0,0,0,6.887,6.887h78.033V503.826a177.614,177.614,0,0,0-21.893-4.074Z" transform="translate(200 -223.935)" fill="#3f3d56"/>
      <path id="Path_9" data-name="Path 9" d="M861.272,502.558c-2.508-.552-5.016-1.029-7.523-1.469a8.262,8.262,0,0,0,1.085-4.1V461.921a8.309,8.309,0,0,0-8.309-8.309h-3.374a19.938,19.938,0,1,0-28.326,0h-3.373a8.309,8.309,0,0,0-8.309,8.309v35.073a8.275,8.275,0,0,0,.478,2.758,177.624,177.624,0,0,0-21.893,4.074V524.5h78.033a6.887,6.887,0,0,0,6.887-6.887v-8.333A6.877,6.877,0,0,0,861.272,502.558Z" transform="translate(200 -223.935)" fill="#3f3d56"/>
      <path id="Path_10" data-name="Path 10" d="M681.85,265.647,882.7,250.14l-160.24,27.322-38.4-6.646Z" transform="translate(356 -50)" fill="#3f3d56"/>
      <path id="Path_11" data-name="Path 11" d="M615.653,610.9H584.494a8.789,8.789,0,0,0-8.789,8.789v6.791a8.783,8.783,0,0,0,5.682,8.213,8.589,8.589,0,0,0-1.99,5.509v1.948a8.612,8.612,0,0,0,3.694,7.071l0,25.923h33.968V649.219a8.611,8.611,0,0,0,3.692-7.07V640.2a8.589,8.589,0,0,0-1.99-5.509,8.784,8.784,0,0,0,5.682-8.213v-6.791a8.789,8.789,0,0,0-8.79-8.789Z" transform="translate(200 -223.935)" fill="#3f3d56"/>
      <path id="Path_12" data-name="Path 12" d="M568.408,671.475a5.239,5.239,0,0,0-5.233,5.232v41.917a5.239,5.239,0,0,0,5.233,5.233H631.74a5.239,5.239,0,0,0,5.232-5.233V676.707a5.239,5.239,0,0,0-5.232-5.232Z" transform="translate(200 -223.935)" fill="#6c63ff"/>
      <path id="Path_13" data-name="Path 13" d="M672.61,593.915l-28.23,23.63H555.767l-26.687-23.63h26.539l1.159-5.782a7.5,7.5,0,0,1,7.355-6.033h74.095a7.5,7.5,0,0,1,7.355,6.033l1.159,5.782Z" transform="translate(200 -223.935)" fill="#6c63ff"/>
      <circle id="Ellipse_1" data-name="Ellipse 1" cx="20.676" cy="20.676" r="20.676" transform="translate(779.397 453.054)" fill="#3f3d56"/>
      <circle id="Ellipse_2" data-name="Ellipse 2" cx="11.815" cy="11.815" r="11.815" transform="translate(788.258 461.915)" fill="#e6e6e6"/>
      <path id="Path_14" data-name="Path 14" d="M607.215,688.269a11.8,11.8,0,0,1-16.538,16.538,11.8,11.8,0,1,0,16.538-16.538Z" transform="translate(200 -223.935)" fill="#fff"/>
      <rect id="Rectangle_1" data-name="Rectangle 1" width="530.196" height="3.382" transform="translate(536.821 287.43)" fill="#e6e6e6"/>
      <path id="Path_15" data-name="Path 15" d="M723.941,275.031l-38.4-6.646-.377-.88-1.838.142,2.215,5.169,38.4,6.646,160.24-29.322-47.487,5.666Z" transform="translate(356 -50)" fill="#6c63ff"/>
      <path id="Path_16" data-name="Path 16" d="M226.973,265.647,427.828,250.14,267.587,277.462l-38.4-6.646Z" transform="translate(356 -50)" fill="#3f3d56"/>
      <path id="Path_17" data-name="Path 17" d="M269.8,275.031l-38.4-6.646-.377-.88-1.838.142,2.215,5.169,38.4,6.646,160.24-29.322-47.487,5.666Z" transform="translate(356 -50)" fill="#6c63ff"/>
      <rect id="Rectangle_2" data-name="Rectangle 2" width="59.075" height="11.815" transform="translate(771.644 364.442)" fill="#e6e6e6"/>
    </g>
    <rect id="landscape" width="888" height="2.241" transform="translate(356 499.888)" fill="#3f3d56"/>
  </g>
</svg>
